<svg class="svg-icon" style="width: 1.25em; height: 1em;vertical-align: middle;fill: currentColor;overflow: hidden;" viewBox="0 0 1280 1024" version="1.1" xmlns="http://www.w3.org/2000/svg"><path d="M1008 704H272.8c-8.8 0-16 7.2-16 16l-0.2 96c0 8.8 7.2 16 16 16H1008c8.8 0 16-7.2 16-16v-96c0-8.8-7.2-16-16-16z m0 192H272.2c-8.8 0-16 7.2-16 16l-0.2 96c0 8.8 7.2 16 16 16h736c8.8 0 16-7.2 16-16v-96c0-8.8-7.2-16-16-16z m0-384H273.2c-8.8 0-16 7.2-16 16l-0.2 96c0 8.8 7.2 16 16 16H1008c8.8 0 16-7.2 16-16v-96c0-8.8-7.2-16-16-16z m213-278L676.8 7.4a96.3 96.3 0 0 0-73.8 0L59 234C23.4 249 0 283.8 0 322.6V1008c0 8.8 7.2 16 16 16h160c8.8 0 16-7.2 16-16V512c0-35.2 29.2-64 65.2-64h765.6c36 0 65.2 28.8 65.2 64v496c0 8.8 7.2 16 16 16h160c8.8 0 16-7.2 16-16V322.6c0-38.8-23.4-73.6-59-88.6z"  /></svg>